<?xml version="1.0" encoding="utf-8" standalone="no"?>
<!DOCTYPE svg PUBLIC "-//W3C//DTD SVG 1.1//EN"
  "http://www.w3.org/Graphics/SVG/1.1/DTD/svg11.dtd">
<svg xmlns:xlink="http://www.w3.org/1999/xlink" width="735.2498pt" height="646.553462pt" viewBox="0 0 735.2498 646.553462" xmlns="http://www.w3.org/2000/svg" version="1.1">
 <metadata>
  <rdf:RDF xmlns:dc="http://purl.org/dc/elements/1.1/" xmlns:cc="http://creativecommons.org/ns#" xmlns:rdf="http://www.w3.org/1999/02/22-rdf-syntax-ns#">
   <cc:Work>
    <dc:type rdf:resource="http://purl.org/dc/dcmitype/StillImage"/>
    <dc:date>2026-02-05T10:28:57.151352</dc:date>
    <dc:format>image/svg+xml</dc:format>
    <dc:creator>
     <cc:Agent>
      <dc:title>Matplotlib v3.10.0, https://matplotlib.org/</dc:title>
     </cc:Agent>
    </dc:creator>
   </cc:Work>
  </rdf:RDF>
 </metadata>
 <defs>
  <style type="text/css">*{stroke-linejoin: round; stroke-linecap: butt}</style>
 </defs>
 <g id="figure_1">
  <g id="patch_1">
   <path d="M 0 646.553462 
L 735.2498 646.553462 
L 735.2498 0 
L 0 0 
z
" style="fill: #ffffff"/>
  </g>
  <g id="axes_1">
   <g id="patch_2">
    <path d="M 620.629 339.4624 
C 620.629 302.55499 613.359045 266.006457 599.23519 231.908456 
C 585.111336 197.810455 564.408255 166.826105 538.310775 140.728625 
C 512.213295 114.631145 481.228945 93.928064 447.130944 79.80421 
C 413.032943 65.680355 376.48441 58.4104 339.577 58.4104 
C 302.66959 58.4104 266.121057 65.680355 232.023056 79.80421 
C 197.925055 93.928064 166.940705 114.631145 140.843225 140.728625 
C 114.745745 166.826105 94.042664 197.810455 79.91881 231.908456 
C 65.794955 266.006457 58.525 302.55499 58.525 339.4624 
C 58.525 376.36981 65.794955 412.918343 79.91881 447.016344 
C 94.042664 481.114345 114.745745 512.098695 140.843225 538.196175 
C 166.940705 564.293655 197.925055 584.996736 232.023056 599.12059 
C 266.121057 613.244445 302.66959 620.5144 339.577 620.5144 
C 376.48441 620.5144 413.032943 613.244445 447.130944 599.12059 
C 481.228945 584.996736 512.213295 564.293655 538.310775 538.196175 
C 564.408255 512.098695 585.111336 481.114345 599.23519 447.016344 
C 613.359045 412.918343 620.629 376.36981 620.629 339.4624 
M 339.577 339.4624 
C 339.577 339.4624 339.577 339.4624 339.577 339.4624 
C 339.577 339.4624 339.577 339.4624 339.577 339.4624 
C 339.577 339.4624 339.577 339.4624 339.577 339.4624 
C 339.577 339.4624 339.577 339.4624 339.577 339.4624 
C 339.577 339.4624 339.577 339.4624 339.577 339.4624 
C 339.577 339.4624 339.577 339.4624 339.577 339.4624 
C 339.577 339.4624 339.577 339.4624 339.577 339.4624 
C 339.577 339.4624 339.577 339.4624 339.577 339.4624 
C 339.577 339.4624 339.577 339.4624 339.577 339.4624 
C 339.577 339.4624 339.577 339.4624 339.577 339.4624 
C 339.577 339.4624 339.577 339.4624 339.577 339.4624 
C 339.577 339.4624 339.577 339.4624 339.577 339.4624 
C 339.577 339.4624 339.577 339.4624 339.577 339.4624 
C 339.577 339.4624 339.577 339.4624 339.577 339.4624 
C 339.577 339.4624 339.577 339.4624 339.577 339.4624 
C 339.577 339.4624 339.577 339.4624 339.577 339.4624 
z
" style="fill: #ffffff"/>
   </g>
   <g id="matplotlib.axis_1">
    <g id="xtick_1">
     <g id="line2d_1">
      <path d="M 339.577 339.4624 
L 339.577 58.4104 
" clip-path="url(#p1de06f22b2)" style="fill: none; stroke: #cccccc; stroke-width: 0.8; stroke-linecap: round"/>
     </g>
     <g id="text_1">
      <!-- Sharpness -->
      <g style="fill: #262626" transform="translate(313.485594 47.169775) scale(0.1 -0.1)">
       <defs>
        <path id="DejaVuSans-53" d="M 3425 4513 
L 3425 3897 
Q 3066 4069 2747 4153 
Q 2428 4238 2131 4238 
Q 1616 4238 1336 4038 
Q 1056 3838 1056 3469 
Q 1056 3159 1242 3001 
Q 1428 2844 1947 2747 
L 2328 2669 
Q 3034 2534 3370 2195 
Q 3706 1856 3706 1288 
Q 3706 609 3251 259 
Q 2797 -91 1919 -91 
Q 1588 -91 1214 -16 
Q 841 59 441 206 
L 441 856 
Q 825 641 1194 531 
Q 1563 422 1919 422 
Q 2459 422 2753 634 
Q 3047 847 3047 1241 
Q 3047 1584 2836 1778 
Q 2625 1972 2144 2069 
L 1759 2144 
Q 1053 2284 737 2584 
Q 422 2884 422 3419 
Q 422 4038 858 4394 
Q 1294 4750 2059 4750 
Q 2388 4750 2728 4690 
Q 3069 4631 3425 4513 
z
" transform="scale(0.015625)"/>
        <path id="DejaVuSans-68" d="M 3513 2113 
L 3513 0 
L 2938 0 
L 2938 2094 
Q 2938 2591 2744 2837 
Q 2550 3084 2163 3084 
Q 1697 3084 1428 2787 
Q 1159 2491 1159 1978 
L 1159 0 
L 581 0 
L 581 4863 
L 1159 4863 
L 1159 2956 
Q 1366 3272 1645 3428 
Q 1925 3584 2291 3584 
Q 2894 3584 3203 3211 
Q 3513 2838 3513 2113 
z
" transform="scale(0.015625)"/>
        <path id="DejaVuSans-61" d="M 2194 1759 
Q 1497 1759 1228 1600 
Q 959 1441 959 1056 
Q 959 750 1161 570 
Q 1363 391 1709 391 
Q 2188 391 2477 730 
Q 2766 1069 2766 1631 
L 2766 1759 
L 2194 1759 
z
M 3341 1997 
L 3341 0 
L 2766 0 
L 2766 531 
Q 2569 213 2275 61 
Q 1981 -91 1556 -91 
Q 1019 -91 701 211 
Q 384 513 384 1019 
Q 384 1609 779 1909 
Q 1175 2209 1959 2209 
L 2766 2209 
L 2766 2266 
Q 2766 2663 2505 2880 
Q 2244 3097 1772 3097 
Q 1472 3097 1187 3025 
Q 903 2953 641 2809 
L 641 3341 
Q 956 3463 1253 3523 
Q 1550 3584 1831 3584 
Q 2591 3584 2966 3190 
Q 3341 2797 3341 1997 
z
" transform="scale(0.015625)"/>
        <path id="DejaVuSans-72" d="M 2631 2963 
Q 2534 3019 2420 3045 
Q 2306 3072 2169 3072 
Q 1681 3072 1420 2755 
Q 1159 2438 1159 1844 
L 1159 0 
L 581 0 
L 581 3500 
L 1159 3500 
L 1159 2956 
Q 1341 3275 1631 3429 
Q 1922 3584 2338 3584 
Q 2397 3584 2469 3576 
Q 2541 3569 2628 3553 
L 2631 2963 
z
" transform="scale(0.015625)"/>
        <path id="DejaVuSans-70" d="M 1159 525 
L 1159 -1331 
L 581 -1331 
L 581 3500 
L 1159 3500 
L 1159 2969 
Q 1341 3281 1617 3432 
Q 1894 3584 2278 3584 
Q 2916 3584 3314 3078 
Q 3713 2572 3713 1747 
Q 3713 922 3314 415 
Q 2916 -91 2278 -91 
Q 1894 -91 1617 61 
Q 1341 213 1159 525 
z
M 3116 1747 
Q 3116 2381 2855 2742 
Q 2594 3103 2138 3103 
Q 1681 3103 1420 2742 
Q 1159 2381 1159 1747 
Q 1159 1113 1420 752 
Q 1681 391 2138 391 
Q 2594 391 2855 752 
Q 3116 1113 3116 1747 
z
" transform="scale(0.015625)"/>
        <path id="DejaVuSans-6e" d="M 3513 2113 
L 3513 0 
L 2938 0 
L 2938 2094 
Q 2938 2591 2744 2837 
Q 2550 3084 2163 3084 
Q 1697 3084 1428 2787 
Q 1159 2491 1159 1978 
L 1159 0 
L 581 0 
L 581 3500 
L 1159 3500 
L 1159 2956 
Q 1366 3272 1645 3428 
Q 1925 3584 2291 3584 
Q 2894 3584 3203 3211 
Q 3513 2838 3513 2113 
z
" transform="scale(0.015625)"/>
        <path id="DejaVuSans-65" d="M 3597 1894 
L 3597 1613 
L 953 1613 
Q 991 1019 1311 708 
Q 1631 397 2203 397 
Q 2534 397 2845 478 
Q 3156 559 3463 722 
L 3463 178 
Q 3153 47 2828 -22 
Q 2503 -91 2169 -91 
Q 1331 -91 842 396 
Q 353 884 353 1716 
Q 353 2575 817 3079 
Q 1281 3584 2069 3584 
Q 2775 3584 3186 3129 
Q 3597 2675 3597 1894 
z
M 3022 2063 
Q 3016 2534 2758 2815 
Q 2500 3097 2075 3097 
Q 1594 3097 1305 2825 
Q 1016 2553 972 2059 
L 3022 2063 
z
" transform="scale(0.015625)"/>
        <path id="DejaVuSans-73" d="M 2834 3397 
L 2834 2853 
Q 2591 2978 2328 3040 
Q 2066 3103 1784 3103 
Q 1356 3103 1142 2972 
Q 928 2841 928 2578 
Q 928 2378 1081 2264 
Q 1234 2150 1697 2047 
L 1894 2003 
Q 2506 1872 2764 1633 
Q 3022 1394 3022 966 
Q 3022 478 2636 193 
Q 2250 -91 1575 -91 
Q 1294 -91 989 -36 
Q 684 19 347 128 
L 347 722 
Q 666 556 975 473 
Q 1284 391 1588 391 
Q 1994 391 2212 530 
Q 2431 669 2431 922 
Q 2431 1156 2273 1281 
Q 2116 1406 1581 1522 
L 1381 1569 
Q 847 1681 609 1914 
Q 372 2147 372 2553 
Q 372 3047 722 3315 
Q 1072 3584 1716 3584 
Q 2034 3584 2315 3537 
Q 2597 3491 2834 3397 
z
" transform="scale(0.015625)"/>
       </defs>
       <use xlink:href="#DejaVuSans-53"/>
       <use xlink:href="#DejaVuSans-68" transform="translate(63.476562 0)"/>
       <use xlink:href="#DejaVuSans-61" transform="translate(126.855469 0)"/>
       <use xlink:href="#DejaVuSans-72" transform="translate(188.134766 0)"/>
       <use xlink:href="#DejaVuSans-70" transform="translate(229.248047 0)"/>
       <use xlink:href="#DejaVuSans-6e" transform="translate(292.724609 0)"/>
       <use xlink:href="#DejaVuSans-65" transform="translate(356.103516 0)"/>
       <use xlink:href="#DejaVuSans-73" transform="translate(417.626953 0)"/>
       <use xlink:href="#DejaVuSans-73" transform="translate(469.726562 0)"/>
      </g>
     </g>
    </g>
    <g id="xtick_2">
     <g id="line2d_2">
      <path d="M 339.577 339.4624 
L 538.310775 140.728625 
" clip-path="url(#p1de06f22b2)" style="fill: none; stroke: #cccccc; stroke-width: 0.8; stroke-linecap: round"/>
     </g>
     <g id="text_2">
      <!-- Rust Resistance -->
      <g style="fill: #262626" transform="translate(508.695426 133.588505) scale(0.1 -0.1)">
       <defs>
        <path id="DejaVuSans-52" d="M 2841 2188 
Q 3044 2119 3236 1894 
Q 3428 1669 3622 1275 
L 4263 0 
L 3584 0 
L 2988 1197 
Q 2756 1666 2539 1819 
Q 2322 1972 1947 1972 
L 1259 1972 
L 1259 0 
L 628 0 
L 628 4666 
L 2053 4666 
Q 2853 4666 3247 4331 
Q 3641 3997 3641 3322 
Q 3641 2881 3436 2590 
Q 3231 2300 2841 2188 
z
M 1259 4147 
L 1259 2491 
L 2053 2491 
Q 2509 2491 2742 2702 
Q 2975 2913 2975 3322 
Q 2975 3731 2742 3939 
Q 2509 4147 2053 4147 
L 1259 4147 
z
" transform="scale(0.015625)"/>
        <path id="DejaVuSans-75" d="M 544 1381 
L 544 3500 
L 1119 3500 
L 1119 1403 
Q 1119 906 1312 657 
Q 1506 409 1894 409 
Q 2359 409 2629 706 
Q 2900 1003 2900 1516 
L 2900 3500 
L 3475 3500 
L 3475 0 
L 2900 0 
L 2900 538 
Q 2691 219 2414 64 
Q 2138 -91 1772 -91 
Q 1169 -91 856 284 
Q 544 659 544 1381 
z
M 1991 3584 
L 1991 3584 
z
" transform="scale(0.015625)"/>
        <path id="DejaVuSans-74" d="M 1172 4494 
L 1172 3500 
L 2356 3500 
L 2356 3053 
L 1172 3053 
L 1172 1153 
Q 1172 725 1289 603 
Q 1406 481 1766 481 
L 2356 481 
L 2356 0 
L 1766 0 
Q 1100 0 847 248 
Q 594 497 594 1153 
L 594 3053 
L 172 3053 
L 172 3500 
L 594 3500 
L 594 4494 
L 1172 4494 
z
" transform="scale(0.015625)"/>
        <path id="DejaVuSans-20" transform="scale(0.015625)"/>
        <path id="DejaVuSans-69" d="M 603 3500 
L 1178 3500 
L 1178 0 
L 603 0 
L 603 3500 
z
M 603 4863 
L 1178 4863 
L 1178 4134 
L 603 4134 
L 603 4863 
z
" transform="scale(0.015625)"/>
        <path id="DejaVuSans-63" d="M 3122 3366 
L 3122 2828 
Q 2878 2963 2633 3030 
Q 2388 3097 2138 3097 
Q 1578 3097 1268 2742 
Q 959 2388 959 1747 
Q 959 1106 1268 751 
Q 1578 397 2138 397 
Q 2388 397 2633 464 
Q 2878 531 3122 666 
L 3122 134 
Q 2881 22 2623 -34 
Q 2366 -91 2075 -91 
Q 1284 -91 818 406 
Q 353 903 353 1747 
Q 353 2603 823 3093 
Q 1294 3584 2113 3584 
Q 2378 3584 2631 3529 
Q 2884 3475 3122 3366 
z
" transform="scale(0.015625)"/>
       </defs>
       <use xlink:href="#DejaVuSans-52"/>
       <use xlink:href="#DejaVuSans-75" transform="translate(64.982422 0)"/>
       <use xlink:href="#DejaVuSans-73" transform="translate(128.361328 0)"/>
       <use xlink:href="#DejaVuSans-74" transform="translate(180.460938 0)"/>
       <use xlink:href="#DejaVuSans-20" transform="translate(219.669922 0)"/>
       <use xlink:href="#DejaVuSans-52" transform="translate(251.457031 0)"/>
       <use xlink:href="#DejaVuSans-65" transform="translate(316.439453 0)"/>
       <use xlink:href="#DejaVuSans-73" transform="translate(377.962891 0)"/>
       <use xlink:href="#DejaVuSans-69" transform="translate(430.0625 0)"/>
       <use xlink:href="#DejaVuSans-73" transform="translate(457.845703 0)"/>
       <use xlink:href="#DejaVuSans-74" transform="translate(509.945312 0)"/>
       <use xlink:href="#DejaVuSans-61" transform="translate(549.154297 0)"/>
       <use xlink:href="#DejaVuSans-6e" transform="translate(610.433594 0)"/>
       <use xlink:href="#DejaVuSans-63" transform="translate(673.8125 0)"/>
       <use xlink:href="#DejaVuSans-65" transform="translate(728.792969 0)"/>
      </g>
     </g>
    </g>
    <g id="xtick_3">
     <g id="line2d_3">
      <path d="M 339.577 339.4624 
L 620.629 339.4624 
" clip-path="url(#p1de06f22b2)" style="fill: none; stroke: #cccccc; stroke-width: 0.8; stroke-linecap: round"/>
     </g>
     <g id="text_3">
      <!-- Durability -->
      <g style="fill: #262626" transform="translate(610.229781 342.221775) scale(0.1 -0.1)">
       <defs>
        <path id="DejaVuSans-44" d="M 1259 4147 
L 1259 519 
L 2022 519 
Q 2988 519 3436 956 
Q 3884 1394 3884 2338 
Q 3884 3275 3436 3711 
Q 2988 4147 2022 4147 
L 1259 4147 
z
M 628 4666 
L 1925 4666 
Q 3281 4666 3915 4102 
Q 4550 3538 4550 2338 
Q 4550 1131 3912 565 
Q 3275 0 1925 0 
L 628 0 
L 628 4666 
z
" transform="scale(0.015625)"/>
        <path id="DejaVuSans-62" d="M 3116 1747 
Q 3116 2381 2855 2742 
Q 2594 3103 2138 3103 
Q 1681 3103 1420 2742 
Q 1159 2381 1159 1747 
Q 1159 1113 1420 752 
Q 1681 391 2138 391 
Q 2594 391 2855 752 
Q 3116 1113 3116 1747 
z
M 1159 2969 
Q 1341 3281 1617 3432 
Q 1894 3584 2278 3584 
Q 2916 3584 3314 3078 
Q 3713 2572 3713 1747 
Q 3713 922 3314 415 
Q 2916 -91 2278 -91 
Q 1894 -91 1617 61 
Q 1341 213 1159 525 
L 1159 0 
L 581 0 
L 581 4863 
L 1159 4863 
L 1159 2969 
z
" transform="scale(0.015625)"/>
        <path id="DejaVuSans-6c" d="M 603 4863 
L 1178 4863 
L 1178 0 
L 603 0 
L 603 4863 
z
" transform="scale(0.015625)"/>
        <path id="DejaVuSans-79" d="M 2059 -325 
Q 1816 -950 1584 -1140 
Q 1353 -1331 966 -1331 
L 506 -1331 
L 506 -850 
L 844 -850 
Q 1081 -850 1212 -737 
Q 1344 -625 1503 -206 
L 1606 56 
L 191 3500 
L 800 3500 
L 1894 763 
L 2988 3500 
L 3597 3500 
L 2059 -325 
z
" transform="scale(0.015625)"/>
       </defs>
       <use xlink:href="#DejaVuSans-44"/>
       <use xlink:href="#DejaVuSans-75" transform="translate(77.001953 0)"/>
       <use xlink:href="#DejaVuSans-72" transform="translate(140.380859 0)"/>
       <use xlink:href="#DejaVuSans-61" transform="translate(181.494141 0)"/>
       <use xlink:href="#DejaVuSans-62" transform="translate(242.773438 0)"/>
       <use xlink:href="#DejaVuSans-69" transform="translate(306.25 0)"/>
       <use xlink:href="#DejaVuSans-6c" transform="translate(334.033203 0)"/>
       <use xlink:href="#DejaVuSans-69" transform="translate(361.816406 0)"/>
       <use xlink:href="#DejaVuSans-74" transform="translate(389.599609 0)"/>
       <use xlink:href="#DejaVuSans-79" transform="translate(428.808594 0)"/>
      </g>
     </g>
    </g>
    <g id="xtick_4">
     <g id="line2d_4">
      <path d="M 339.577 339.4624 
L 538.310775 538.196175 
" clip-path="url(#p1de06f22b2)" style="fill: none; stroke: #cccccc; stroke-width: 0.8; stroke-linecap: round"/>
     </g>
     <g id="text_4">
      <!-- Handle Comfort -->
      <g style="fill: #262626" transform="translate(508.732145 550.855045) scale(0.1 -0.1)">
       <defs>
        <path id="DejaVuSans-48" d="M 628 4666 
L 1259 4666 
L 1259 2753 
L 3553 2753 
L 3553 4666 
L 4184 4666 
L 4184 0 
L 3553 0 
L 3553 2222 
L 1259 2222 
L 1259 0 
L 628 0 
L 628 4666 
z
" transform="scale(0.015625)"/>
        <path id="DejaVuSans-64" d="M 2906 2969 
L 2906 4863 
L 3481 4863 
L 3481 0 
L 2906 0 
L 2906 525 
Q 2725 213 2448 61 
Q 2172 -91 1784 -91 
Q 1150 -91 751 415 
Q 353 922 353 1747 
Q 353 2572 751 3078 
Q 1150 3584 1784 3584 
Q 2172 3584 2448 3432 
Q 2725 3281 2906 2969 
z
M 947 1747 
Q 947 1113 1208 752 
Q 1469 391 1925 391 
Q 2381 391 2643 752 
Q 2906 1113 2906 1747 
Q 2906 2381 2643 2742 
Q 2381 3103 1925 3103 
Q 1469 3103 1208 2742 
Q 947 2381 947 1747 
z
" transform="scale(0.015625)"/>
        <path id="DejaVuSans-43" d="M 4122 4306 
L 4122 3641 
Q 3803 3938 3442 4084 
Q 3081 4231 2675 4231 
Q 1875 4231 1450 3742 
Q 1025 3253 1025 2328 
Q 1025 1406 1450 917 
Q 1875 428 2675 428 
Q 3081 428 3442 575 
Q 3803 722 4122 1019 
L 4122 359 
Q 3791 134 3420 21 
Q 3050 -91 2638 -91 
Q 1578 -91 968 557 
Q 359 1206 359 2328 
Q 359 3453 968 4101 
Q 1578 4750 2638 4750 
Q 3056 4750 3426 4639 
Q 3797 4528 4122 4306 
z
" transform="scale(0.015625)"/>
        <path id="DejaVuSans-6f" d="M 1959 3097 
Q 1497 3097 1228 2736 
Q 959 2375 959 1747 
Q 959 1119 1226 758 
Q 1494 397 1959 397 
Q 2419 397 2687 759 
Q 2956 1122 2956 1747 
Q 2956 2369 2687 2733 
Q 2419 3097 1959 3097 
z
M 1959 3584 
Q 2709 3584 3137 3096 
Q 3566 2609 3566 1747 
Q 3566 888 3137 398 
Q 2709 -91 1959 -91 
Q 1206 -91 779 398 
Q 353 888 353 1747 
Q 353 2609 779 3096 
Q 1206 3584 1959 3584 
z
" transform="scale(0.015625)"/>
        <path id="DejaVuSans-6d" d="M 3328 2828 
Q 3544 3216 3844 3400 
Q 4144 3584 4550 3584 
Q 5097 3584 5394 3201 
Q 5691 2819 5691 2113 
L 5691 0 
L 5113 0 
L 5113 2094 
Q 5113 2597 4934 2840 
Q 4756 3084 4391 3084 
Q 3944 3084 3684 2787 
Q 3425 2491 3425 1978 
L 3425 0 
L 2847 0 
L 2847 2094 
Q 2847 2600 2669 2842 
Q 2491 3084 2119 3084 
Q 1678 3084 1418 2786 
Q 1159 2488 1159 1978 
L 1159 0 
L 581 0 
L 581 3500 
L 1159 3500 
L 1159 2956 
Q 1356 3278 1631 3431 
Q 1906 3584 2284 3584 
Q 2666 3584 2933 3390 
Q 3200 3197 3328 2828 
z
" transform="scale(0.015625)"/>
        <path id="DejaVuSans-66" d="M 2375 4863 
L 2375 4384 
L 1825 4384 
Q 1516 4384 1395 4259 
Q 1275 4134 1275 3809 
L 1275 3500 
L 2222 3500 
L 2222 3053 
L 1275 3053 
L 1275 0 
L 697 0 
L 697 3053 
L 147 3053 
L 147 3500 
L 697 3500 
L 697 3744 
Q 697 4328 969 4595 
Q 1241 4863 1831 4863 
L 2375 4863 
z
" transform="scale(0.015625)"/>
       </defs>
       <use xlink:href="#DejaVuSans-48"/>
       <use xlink:href="#DejaVuSans-61" transform="translate(75.195312 0)"/>
       <use xlink:href="#DejaVuSans-6e" transform="translate(136.474609 0)"/>
       <use xlink:href="#DejaVuSans-64" transform="translate(199.853516 0)"/>
       <use xlink:href="#DejaVuSans-6c" transform="translate(263.330078 0)"/>
       <use xlink:href="#DejaVuSans-65" transform="translate(291.113281 0)"/>
       <use xlink:href="#DejaVuSans-20" transform="translate(352.636719 0)"/>
       <use xlink:href="#DejaVuSans-43" transform="translate(384.423828 0)"/>
       <use xlink:href="#DejaVuSans-6f" transform="translate(454.248047 0)"/>
       <use xlink:href="#DejaVuSans-6d" transform="translate(515.429688 0)"/>
       <use xlink:href="#DejaVuSans-66" transform="translate(612.841797 0)"/>
       <use xlink:href="#DejaVuSans-6f" transform="translate(648.046875 0)"/>
       <use xlink:href="#DejaVuSans-72" transform="translate(709.228516 0)"/>
       <use xlink:href="#DejaVuSans-74" transform="translate(750.341797 0)"/>
      </g>
     </g>
    </g>
    <g id="xtick_5">
     <g id="line2d_5">
      <path d="M 339.577 339.4624 
L 339.577 620.5144 
" clip-path="url(#p1de06f22b2)" style="fill: none; stroke: #cccccc; stroke-width: 0.8; stroke-linecap: round"/>
     </g>
     <g id="text_5">
      <!-- Balance &amp; Weight -->
      <g style="fill: #262626" transform="translate(295.138719 637.273775) scale(0.1 -0.1)">
       <defs>
        <path id="DejaVuSans-42" d="M 1259 2228 
L 1259 519 
L 2272 519 
Q 2781 519 3026 730 
Q 3272 941 3272 1375 
Q 3272 1813 3026 2020 
Q 2781 2228 2272 2228 
L 1259 2228 
z
M 1259 4147 
L 1259 2741 
L 2194 2741 
Q 2656 2741 2882 2914 
Q 3109 3088 3109 3444 
Q 3109 3797 2882 3972 
Q 2656 4147 2194 4147 
L 1259 4147 
z
M 628 4666 
L 2241 4666 
Q 2963 4666 3353 4366 
Q 3744 4066 3744 3513 
Q 3744 3084 3544 2831 
Q 3344 2578 2956 2516 
Q 3422 2416 3680 2098 
Q 3938 1781 3938 1306 
Q 3938 681 3513 340 
Q 3088 0 2303 0 
L 628 0 
L 628 4666 
z
" transform="scale(0.015625)"/>
        <path id="DejaVuSans-26" d="M 1556 2509 
Q 1272 2256 1139 2004 
Q 1006 1753 1006 1478 
Q 1006 1022 1337 719 
Q 1669 416 2169 416 
Q 2466 416 2725 514 
Q 2984 613 3213 813 
L 1556 2509 
z
M 1997 2859 
L 3584 1234 
Q 3769 1513 3872 1830 
Q 3975 2147 3994 2503 
L 4575 2503 
Q 4538 2091 4375 1687 
Q 4213 1284 3922 891 
L 4794 0 
L 4006 0 
L 3559 459 
Q 3234 181 2878 45 
Q 2522 -91 2113 -91 
Q 1359 -91 881 339 
Q 403 769 403 1441 
Q 403 1841 612 2192 
Q 822 2544 1241 2853 
Q 1091 3050 1012 3245 
Q 934 3441 934 3628 
Q 934 4134 1281 4442 
Q 1628 4750 2203 4750 
Q 2463 4750 2720 4694 
Q 2978 4638 3244 4525 
L 3244 3956 
Q 2972 4103 2725 4179 
Q 2478 4256 2266 4256 
Q 1938 4256 1733 4082 
Q 1528 3909 1528 3634 
Q 1528 3475 1620 3314 
Q 1713 3153 1997 2859 
z
" transform="scale(0.015625)"/>
        <path id="DejaVuSans-57" d="M 213 4666 
L 850 4666 
L 1831 722 
L 2809 4666 
L 3519 4666 
L 4500 722 
L 5478 4666 
L 6119 4666 
L 4947 0 
L 4153 0 
L 3169 4050 
L 2175 0 
L 1381 0 
L 213 4666 
z
" transform="scale(0.015625)"/>
        <path id="DejaVuSans-67" d="M 2906 1791 
Q 2906 2416 2648 2759 
Q 2391 3103 1925 3103 
Q 1463 3103 1205 2759 
Q 947 2416 947 1791 
Q 947 1169 1205 825 
Q 1463 481 1925 481 
Q 2391 481 2648 825 
Q 2906 1169 2906 1791 
z
M 3481 434 
Q 3481 -459 3084 -895 
Q 2688 -1331 1869 -1331 
Q 1566 -1331 1297 -1286 
Q 1028 -1241 775 -1147 
L 775 -588 
Q 1028 -725 1275 -790 
Q 1522 -856 1778 -856 
Q 2344 -856 2625 -561 
Q 2906 -266 2906 331 
L 2906 616 
Q 2728 306 2450 153 
Q 2172 0 1784 0 
Q 1141 0 747 490 
Q 353 981 353 1791 
Q 353 2603 747 3093 
Q 1141 3584 1784 3584 
Q 2172 3584 2450 3431 
Q 2728 3278 2906 2969 
L 2906 3500 
L 3481 3500 
L 3481 434 
z
" transform="scale(0.015625)"/>
       </defs>
       <use xlink:href="#DejaVuSans-42"/>
       <use xlink:href="#DejaVuSans-61" transform="translate(68.603516 0)"/>
       <use xlink:href="#DejaVuSans-6c" transform="translate(129.882812 0)"/>
       <use xlink:href="#DejaVuSans-61" transform="translate(157.666016 0)"/>
       <use xlink:href="#DejaVuSans-6e" transform="translate(218.945312 0)"/>
       <use xlink:href="#DejaVuSans-63" transform="translate(282.324219 0)"/>
       <use xlink:href="#DejaVuSans-65" transform="translate(337.304688 0)"/>
       <use xlink:href="#DejaVuSans-20" transform="translate(398.828125 0)"/>
       <use xlink:href="#DejaVuSans-26" transform="translate(430.615234 0)"/>
       <use xlink:href="#DejaVuSans-20" transform="translate(508.59375 0)"/>
       <use xlink:href="#DejaVuSans-57" transform="translate(540.380859 0)"/>
       <use xlink:href="#DejaVuSans-65" transform="translate(633.382812 0)"/>
       <use xlink:href="#DejaVuSans-69" transform="translate(694.90625 0)"/>
       <use xlink:href="#DejaVuSans-67" transform="translate(722.689453 0)"/>
       <use xlink:href="#DejaVuSans-68" transform="translate(786.166016 0)"/>
       <use xlink:href="#DejaVuSans-74" transform="translate(849.544922 0)"/>
      </g>
     </g>
    </g>
    <g id="xtick_6">
     <g id="line2d_6">
      <path d="M 339.577 339.4624 
L 140.843225 538.196175 
" clip-path="url(#p1de06f22b2)" style="fill: none; stroke: #cccccc; stroke-width: 0.8; stroke-linecap: round"/>
     </g>
     <g id="text_6">
      <!-- Appearance &amp; Finish -->
      <g style="fill: #262626" transform="translate(79.609355 550.855045) scale(0.1 -0.1)">
       <defs>
        <path id="DejaVuSans-41" d="M 2188 4044 
L 1331 1722 
L 3047 1722 
L 2188 4044 
z
M 1831 4666 
L 2547 4666 
L 4325 0 
L 3669 0 
L 3244 1197 
L 1141 1197 
L 716 0 
L 50 0 
L 1831 4666 
z
" transform="scale(0.015625)"/>
        <path id="DejaVuSans-46" d="M 628 4666 
L 3309 4666 
L 3309 4134 
L 1259 4134 
L 1259 2759 
L 3109 2759 
L 3109 2228 
L 1259 2228 
L 1259 0 
L 628 0 
L 628 4666 
z
" transform="scale(0.015625)"/>
       </defs>
       <use xlink:href="#DejaVuSans-41"/>
       <use xlink:href="#DejaVuSans-70" transform="translate(68.408203 0)"/>
       <use xlink:href="#DejaVuSans-70" transform="translate(131.884766 0)"/>
       <use xlink:href="#DejaVuSans-65" transform="translate(195.361328 0)"/>
       <use xlink:href="#DejaVuSans-61" transform="translate(256.884766 0)"/>
       <use xlink:href="#DejaVuSans-72" transform="translate(318.164062 0)"/>
       <use xlink:href="#DejaVuSans-61" transform="translate(359.277344 0)"/>
       <use xlink:href="#DejaVuSans-6e" transform="translate(420.556641 0)"/>
       <use xlink:href="#DejaVuSans-63" transform="translate(483.935547 0)"/>
       <use xlink:href="#DejaVuSans-65" transform="translate(538.916016 0)"/>
       <use xlink:href="#DejaVuSans-20" transform="translate(600.439453 0)"/>
       <use xlink:href="#DejaVuSans-26" transform="translate(632.226562 0)"/>
       <use xlink:href="#DejaVuSans-20" transform="translate(710.205078 0)"/>
       <use xlink:href="#DejaVuSans-46" transform="translate(741.992188 0)"/>
       <use xlink:href="#DejaVuSans-69" transform="translate(792.261719 0)"/>
       <use xlink:href="#DejaVuSans-6e" transform="translate(820.044922 0)"/>
       <use xlink:href="#DejaVuSans-69" transform="translate(883.423828 0)"/>
       <use xlink:href="#DejaVuSans-73" transform="translate(911.207031 0)"/>
       <use xlink:href="#DejaVuSans-68" transform="translate(963.306641 0)"/>
      </g>
     </g>
    </g>
    <g id="xtick_7">
     <g id="line2d_7">
      <path d="M 339.577 339.4624 
L 58.525 339.4624 
" clip-path="url(#p1de06f22b2)" style="fill: none; stroke: #cccccc; stroke-width: 0.8; stroke-linecap: round"/>
     </g>
     <g id="text_7">
      <!-- Overall Quality -->
      <g style="fill: #262626" transform="translate(7.2 342.221775) scale(0.1 -0.1)">
       <defs>
        <path id="DejaVuSans-4f" d="M 2522 4238 
Q 1834 4238 1429 3725 
Q 1025 3213 1025 2328 
Q 1025 1447 1429 934 
Q 1834 422 2522 422 
Q 3209 422 3611 934 
Q 4013 1447 4013 2328 
Q 4013 3213 3611 3725 
Q 3209 4238 2522 4238 
z
M 2522 4750 
Q 3503 4750 4090 4092 
Q 4678 3434 4678 2328 
Q 4678 1225 4090 567 
Q 3503 -91 2522 -91 
Q 1538 -91 948 565 
Q 359 1222 359 2328 
Q 359 3434 948 4092 
Q 1538 4750 2522 4750 
z
" transform="scale(0.015625)"/>
        <path id="DejaVuSans-76" d="M 191 3500 
L 800 3500 
L 1894 563 
L 2988 3500 
L 3597 3500 
L 2284 0 
L 1503 0 
L 191 3500 
z
" transform="scale(0.015625)"/>
        <path id="DejaVuSans-51" d="M 2522 4238 
Q 1834 4238 1429 3725 
Q 1025 3213 1025 2328 
Q 1025 1447 1429 934 
Q 1834 422 2522 422 
Q 3209 422 3611 934 
Q 4013 1447 4013 2328 
Q 4013 3213 3611 3725 
Q 3209 4238 2522 4238 
z
M 3406 84 
L 4238 -825 
L 3475 -825 
L 2784 -78 
Q 2681 -84 2626 -87 
Q 2572 -91 2522 -91 
Q 1538 -91 948 567 
Q 359 1225 359 2328 
Q 359 3434 948 4092 
Q 1538 4750 2522 4750 
Q 3503 4750 4090 4092 
Q 4678 3434 4678 2328 
Q 4678 1516 4351 937 
Q 4025 359 3406 84 
z
" transform="scale(0.015625)"/>
       </defs>
       <use xlink:href="#DejaVuSans-4f"/>
       <use xlink:href="#DejaVuSans-76" transform="translate(78.710938 0)"/>
       <use xlink:href="#DejaVuSans-65" transform="translate(137.890625 0)"/>
       <use xlink:href="#DejaVuSans-72" transform="translate(199.414062 0)"/>
       <use xlink:href="#DejaVuSans-61" transform="translate(240.527344 0)"/>
       <use xlink:href="#DejaVuSans-6c" transform="translate(301.806641 0)"/>
       <use xlink:href="#DejaVuSans-6c" transform="translate(329.589844 0)"/>
       <use xlink:href="#DejaVuSans-20" transform="translate(357.373047 0)"/>
       <use xlink:href="#DejaVuSans-51" transform="translate(389.160156 0)"/>
       <use xlink:href="#DejaVuSans-75" transform="translate(467.871094 0)"/>
       <use xlink:href="#DejaVuSans-61" transform="translate(531.25 0)"/>
       <use xlink:href="#DejaVuSans-6c" transform="translate(592.529297 0)"/>
       <use xlink:href="#DejaVuSans-69" transform="translate(620.3125 0)"/>
       <use xlink:href="#DejaVuSans-74" transform="translate(648.095703 0)"/>
       <use xlink:href="#DejaVuSans-79" transform="translate(687.304688 0)"/>
      </g>
     </g>
    </g>
    <g id="xtick_8">
     <g id="line2d_8">
      <path d="M 339.577 339.4624 
L 140.843225 140.728625 
" clip-path="url(#p1de06f22b2)" style="fill: none; stroke: #cccccc; stroke-width: 0.8; stroke-linecap: round"/>
     </g>
     <g id="text_8">
      <!-- Value for Money -->
      <g style="fill: #262626" transform="translate(90.58123 133.588505) scale(0.1 -0.1)">
       <defs>
        <path id="DejaVuSans-56" d="M 1831 0 
L 50 4666 
L 709 4666 
L 2188 738 
L 3669 4666 
L 4325 4666 
L 2547 0 
L 1831 0 
z
" transform="scale(0.015625)"/>
        <path id="DejaVuSans-4d" d="M 628 4666 
L 1569 4666 
L 2759 1491 
L 3956 4666 
L 4897 4666 
L 4897 0 
L 4281 0 
L 4281 4097 
L 3078 897 
L 2444 897 
L 1241 4097 
L 1241 0 
L 628 0 
L 628 4666 
z
" transform="scale(0.015625)"/>
       </defs>
       <use xlink:href="#DejaVuSans-56"/>
       <use xlink:href="#DejaVuSans-61" transform="translate(60.658203 0)"/>
       <use xlink:href="#DejaVuSans-6c" transform="translate(121.9375 0)"/>
       <use xlink:href="#DejaVuSans-75" transform="translate(149.720703 0)"/>
       <use xlink:href="#DejaVuSans-65" transform="translate(213.099609 0)"/>
       <use xlink:href="#DejaVuSans-20" transform="translate(274.623047 0)"/>
       <use xlink:href="#DejaVuSans-66" transform="translate(306.410156 0)"/>
       <use xlink:href="#DejaVuSans-6f" transform="translate(341.615234 0)"/>
       <use xlink:href="#DejaVuSans-72" transform="translate(402.796875 0)"/>
       <use xlink:href="#DejaVuSans-20" transform="translate(443.910156 0)"/>
       <use xlink:href="#DejaVuSans-4d" transform="translate(475.697266 0)"/>
       <use xlink:href="#DejaVuSans-6f" transform="translate(561.976562 0)"/>
       <use xlink:href="#DejaVuSans-6e" transform="translate(623.158203 0)"/>
       <use xlink:href="#DejaVuSans-65" transform="translate(686.537109 0)"/>
       <use xlink:href="#DejaVuSans-79" transform="translate(748.060547 0)"/>
      </g>
     </g>
    </g>
   </g>
   <g id="matplotlib.axis_2">
    <g id="ytick_1">
     <g id="line2d_9">
      <path d="M 339.577 285.928686 
C 346.606983 285.928686 353.568608 287.313439 360.063466 290.003697 
C 366.558323 292.693955 372.460104 296.637399 377.431052 301.608348 
C 382.402001 306.579296 386.345445 312.481077 389.035703 318.975934 
C 391.725961 325.470792 393.110714 332.432417 393.110714 339.4624 
C 393.110714 346.492383 391.725961 353.454008 389.035703 359.948866 
C 386.345445 366.443723 382.402001 372.345504 377.431052 377.316452 
C 372.460104 382.287401 366.558323 386.230845 360.063466 388.921103 
C 353.568608 391.611361 346.606983 392.996114 339.577 392.996114 
C 332.547017 392.996114 325.585392 391.611361 319.090534 388.921103 
C 312.595677 386.230845 306.693896 382.287401 301.722948 377.316452 
C 296.751999 372.345504 292.808555 366.443723 290.118297 359.948866 
C 287.428039 353.454008 286.043286 346.492383 286.043286 339.4624 
C 286.043286 332.432417 287.428039 325.470792 290.118297 318.975934 
C 292.808555 312.481077 296.751999 306.579296 301.722948 301.608348 
C 306.693896 296.637399 312.595677 292.693955 319.090534 290.003697 
C 325.585392 287.313439 332.547017 285.928686 339.577 285.928686 
" clip-path="url(#p1de06f22b2)" style="fill: none; stroke: #cccccc; stroke-width: 0.8; stroke-linecap: round"/>
     </g>
    </g>
    <g id="ytick_2">
     <g id="line2d_10">
      <path d="M 339.577 232.394971 
C 353.636966 232.394971 367.560216 235.164478 380.549931 240.544994 
C 393.539646 245.92551 405.343208 253.812398 415.285105 263.754295 
C 425.227002 273.696192 433.11389 285.499754 438.494406 298.489469 
C 443.874922 311.479184 446.644429 325.402434 446.644429 339.4624 
C 446.644429 353.522366 443.874922 367.445616 438.494406 380.435331 
C 433.11389 393.425046 425.227002 405.228608 415.285105 415.170505 
C 405.343208 425.112402 393.539646 432.99929 380.549931 438.379806 
C 367.560216 443.760322 353.636966 446.529829 339.577 446.529829 
C 325.517034 446.529829 311.593784 443.760322 298.604069 438.379806 
C 285.614354 432.99929 273.810792 425.112402 263.868895 415.170505 
C 253.926998 405.228608 246.04011 393.425046 240.659594 380.435331 
C 235.279078 367.445616 232.509571 353.522366 232.509571 339.4624 
C 232.509571 325.402434 235.279078 311.479184 240.659594 298.489469 
C 246.04011 285.499754 253.926998 273.696192 263.868895 263.754295 
C 273.810792 253.812398 285.614354 245.92551 298.604069 240.544994 
C 311.593784 235.164478 325.517034 232.394971 339.577 232.394971 
" clip-path="url(#p1de06f22b2)" style="fill: none; stroke: #cccccc; stroke-width: 0.8; stroke-linecap: round"/>
     </g>
    </g>
    <g id="ytick_3">
     <g id="line2d_11">
      <path d="M 339.577 178.861257 
C 360.666949 178.861257 381.551825 183.015517 401.036397 191.086291 
C 420.520969 199.157065 438.226311 210.987397 453.139157 225.900243 
C 468.052003 240.813089 479.882335 258.518431 487.953109 278.003003 
C 496.023883 297.487575 500.178143 318.372451 500.178143 339.4624 
C 500.178143 360.552349 496.023883 381.437225 487.953109 400.921797 
C 479.882335 420.406369 468.052003 438.111711 453.139157 453.024557 
C 438.226311 467.937403 420.520969 479.767735 401.036397 487.838509 
C 381.551825 495.909283 360.666949 500.063543 339.577 500.063543 
C 318.487051 500.063543 297.602175 495.909283 278.117603 487.838509 
C 258.633031 479.767735 240.927689 467.937403 226.014843 453.024557 
C 211.101997 438.111711 199.271665 420.406369 191.200891 400.921797 
C 183.130117 381.437225 178.975857 360.552349 178.975857 339.4624 
C 178.975857 318.372451 183.130117 297.487575 191.200891 278.003003 
C 199.271665 258.518431 211.101997 240.813089 226.014843 225.900243 
C 240.927689 210.987397 258.633031 199.157065 278.117603 191.086291 
C 297.602175 183.015517 318.487051 178.861257 339.577 178.861257 
" clip-path="url(#p1de06f22b2)" style="fill: none; stroke: #cccccc; stroke-width: 0.8; stroke-linecap: round"/>
     </g>
    </g>
    <g id="ytick_4">
     <g id="line2d_12">
      <path d="M 339.577 125.327543 
C 367.696932 125.327543 395.543433 130.866556 421.522862 141.627588 
C 447.502292 152.38862 471.109415 168.162396 490.99321 188.04619 
C 510.877004 207.929985 526.65078 231.537108 537.411812 257.516538 
C 548.172844 283.495967 553.711857 311.342468 553.711857 339.4624 
C 553.711857 367.582332 548.172844 395.428833 537.411812 421.408262 
C 526.65078 447.387692 510.877004 470.994815 490.99321 490.87861 
C 471.109415 510.762404 447.502292 526.53618 421.522862 537.297212 
C 395.543433 548.058244 367.696932 553.597257 339.577 553.597257 
C 311.457068 553.597257 283.610567 548.058244 257.631138 537.297212 
C 231.651708 526.53618 208.044585 510.762404 188.16079 490.87861 
C 168.276996 470.994815 152.50322 447.387692 141.742188 421.408262 
C 130.981156 395.428833 125.442143 367.582332 125.442143 339.4624 
C 125.442143 311.342468 130.981156 283.495967 141.742188 257.516538 
C 152.50322 231.537108 168.276996 207.929985 188.16079 188.04619 
C 208.044585 168.162396 231.651708 152.38862 257.631138 141.627588 
C 283.610567 130.866556 311.457068 125.327543 339.577 125.327543 
" clip-path="url(#p1de06f22b2)" style="fill: none; stroke: #cccccc; stroke-width: 0.8; stroke-linecap: round"/>
     </g>
    </g>
    <g id="ytick_5">
     <g id="line2d_13">
      <path d="M 339.577 71.793829 
C 374.726915 71.793829 409.535041 78.717595 442.009328 92.168885 
C 474.483614 105.620175 503.992519 125.337395 528.847262 150.192138 
C 553.702005 175.046881 573.419225 204.555786 586.870515 237.030072 
C 600.321805 269.504359 607.245571 304.312485 607.245571 339.4624 
C 607.245571 374.612315 600.321805 409.420441 586.870515 441.894728 
C 573.419225 474.369014 553.702005 503.877919 528.847262 528.732662 
C 503.992519 553.587405 474.483614 573.304625 442.009328 586.755915 
C 409.535041 600.207205 374.726915 607.130971 339.577 607.130971 
C 304.427085 607.130971 269.618959 600.207205 237.144672 586.755915 
C 204.670386 573.304625 175.161481 553.587405 150.306738 528.732662 
C 125.451995 503.877919 105.734775 474.369014 92.283485 441.894728 
C 78.832195 409.420441 71.908429 374.612315 71.908429 339.4624 
C 71.908429 304.312485 78.832195 269.504359 92.283485 237.030072 
C 105.734775 204.555786 125.451995 175.046881 150.306738 150.192138 
C 175.161481 125.337395 204.670386 105.620175 237.144672 92.168885 
C 269.618959 78.717595 304.427085 71.793829 339.577 71.793829 
" clip-path="url(#p1de06f22b2)" style="fill: none; stroke: #cccccc; stroke-width: 0.8; stroke-linecap: round"/>
     </g>
    </g>
   </g>
   <g id="patch_3">
    <path d="M 339.577 301.582517 
L 422.079422 256.959978 
L 409.282357 339.4624 
L 358.363826 358.249226 
L 339.577 387.731412 
L 315.783024 363.256376 
L 293.683634 339.4624 
L 309.475665 309.361065 
z
" clip-path="url(#p1de06f22b2)" style="fill: #1f77b4; opacity: 0.08; stroke: #1f77b4; stroke-linejoin: miter"/>
   </g>
   <g id="patch_4">
    <path d="M 339.577 273.182563 
L 339.577 339.4624 
L 473.411286 339.4624 
L 386.894565 386.779965 
L 339.577 339.4624 
L 318.546971 360.492429 
L 339.577 339.4624 
L 339.577 339.4624 
z
" clip-path="url(#p1de06f22b2)" style="fill: #ff7f0e; opacity: 0.08; stroke: #ff7f0e; stroke-linejoin: miter"/>
   </g>
   <g id="patch_5">
    <path d="M 339.577 301.542686 
L 528.847262 150.192138 
L 415.416429 339.4624 
L 360.396729 360.282129 
L 339.577 361.768114 
L 318.8474 360.192 
L 249.206992 339.4624 
L 287.001927 286.887327 
z
" clip-path="url(#p1de06f22b2)" style="fill: #2ca02c; opacity: 0.08; stroke: #2ca02c; stroke-linejoin: miter"/>
   </g>
   <g id="patch_6">
    <path d="M 339.577 309.349686 
L 423.697116 255.342284 
L 473.411286 339.4624 
L 413.182102 413.067502 
L 339.577 517.908114 
L 339.577 339.4624 
L 294.965571 339.4624 
L 244.941869 244.827269 
z
" clip-path="url(#p1de06f22b2)" style="fill: #d62728; opacity: 0.08; stroke: #d62728; stroke-linejoin: miter"/>
   </g>
   <g id="patch_7">
    <path d="M 339.577 260.754547 
L 418.34948 260.68992 
L 495.41959 339.4624 
L 402.55679 402.44219 
L 339.577 385.858286 
L 281.178227 397.861173 
L 274.050343 339.4624 
L 279.339682 279.225082 
z
" clip-path="url(#p1de06f22b2)" style="fill: #9467bd; opacity: 0.08; stroke: #9467bd; stroke-linejoin: miter"/>
   </g>
   <g id="line2d_14">
    <path d="M 339.577 301.582517 
L 422.079422 256.959978 
L 409.282357 339.4624 
L 358.363826 358.249226 
L 339.577 387.731412 
L 315.783024 363.256376 
L 293.683634 339.4624 
L 309.475665 309.361065 
L 339.577 301.582517 
" clip-path="url(#p1de06f22b2)" style="fill: none; stroke: #1f77b4; stroke-width: 2; stroke-linecap: round"/>
   </g>
   <g id="line2d_15">
    <path d="M 339.577 273.182563 
L 339.577 339.4624 
L 473.411286 339.4624 
L 386.894565 386.779965 
L 339.577 339.4624 
L 318.546971 360.492429 
L 339.577 339.4624 
L 339.577 339.4624 
L 339.577 273.182563 
" clip-path="url(#p1de06f22b2)" style="fill: none; stroke: #ff7f0e; stroke-width: 2; stroke-linecap: round"/>
   </g>
   <g id="line2d_16">
    <path d="M 339.577 301.542686 
L 528.847262 150.192138 
L 415.416429 339.4624 
L 360.396729 360.282129 
L 339.577 361.768114 
L 318.8474 360.192 
L 249.206992 339.4624 
L 287.001927 286.887327 
L 339.577 301.542686 
" clip-path="url(#p1de06f22b2)" style="fill: none; stroke: #2ca02c; stroke-width: 2; stroke-linecap: round"/>
   </g>
   <g id="line2d_17">
    <path d="M 339.577 309.349686 
L 423.697116 255.342284 
L 473.411286 339.4624 
L 413.182102 413.067502 
L 339.577 517.908114 
L 339.577 339.4624 
L 294.965571 339.4624 
L 244.941869 244.827269 
L 339.577 309.349686 
" clip-path="url(#p1de06f22b2)" style="fill: none; stroke: #d62728; stroke-width: 2; stroke-linecap: round"/>
   </g>
   <g id="line2d_18">
    <path d="M 339.577 260.754547 
L 418.34948 260.68992 
L 495.41959 339.4624 
L 402.55679 402.44219 
L 339.577 385.858286 
L 281.178227 397.861173 
L 274.050343 339.4624 
L 279.339682 279.225082 
L 339.577 260.754547 
" clip-path="url(#p1de06f22b2)" style="fill: none; stroke: #9467bd; stroke-width: 2; stroke-linecap: round"/>
   </g>
   <g id="patch_8">
    <path d="M 339.577 58.4104 
C 302.66959 58.4104 266.121057 65.680355 232.023056 79.80421 
C 197.925055 93.928064 166.940705 114.631145 140.843225 140.728625 
C 114.745745 166.826105 94.042664 197.810455 79.91881 231.908456 
C 65.794955 266.006457 58.525 302.55499 58.525 339.4624 
C 58.525 376.36981 65.794955 412.918343 79.91881 447.016344 
C 94.042664 481.114345 114.745745 512.098695 140.843225 538.196175 
C 166.940705 564.293655 197.925055 584.996736 232.023056 599.12059 
C 266.121057 613.244445 302.66959 620.5144 339.577 620.5144 
C 376.48441 620.5144 413.032943 613.244445 447.130944 599.12059 
C 481.228945 584.996736 512.213295 564.293655 538.310775 538.196175 
C 564.408255 512.098695 585.111336 481.114345 599.23519 447.016344 
C 613.359045 412.918343 620.629 376.36981 620.629 339.4624 
C 620.629 302.55499 613.359045 266.006457 599.23519 231.908456 
C 585.111336 197.810455 564.408255 166.826105 538.310775 140.728625 
C 512.213295 114.631145 481.228945 93.928064 447.130944 79.80421 
C 413.032943 65.680355 376.48441 58.4104 339.577 58.4104 
" style="fill: none; stroke: #cccccc; stroke-width: 0.8; stroke-linejoin: miter; stroke-linecap: square"/>
   </g>
   <g id="text_9">
    <!-- Brand Painpoint Profile (Top 5 Brands) -->
    <g style="fill: #262626" transform="translate(144.2995 40.4104) scale(0.18 -0.18)">
     <defs>
      <path id="DejaVuSans-Bold-42" d="M 2456 2859 
Q 2741 2859 2887 2984 
Q 3034 3109 3034 3353 
Q 3034 3594 2887 3720 
Q 2741 3847 2456 3847 
L 1791 3847 
L 1791 2859 
L 2456 2859 
z
M 2497 819 
Q 2859 819 3042 972 
Q 3225 1125 3225 1434 
Q 3225 1738 3044 1889 
Q 2863 2041 2497 2041 
L 1791 2041 
L 1791 819 
L 2497 819 
z
M 3616 2497 
Q 4003 2384 4215 2081 
Q 4428 1778 4428 1338 
Q 4428 663 3972 331 
Q 3516 0 2584 0 
L 588 0 
L 588 4666 
L 2394 4666 
Q 3366 4666 3802 4372 
Q 4238 4078 4238 3431 
Q 4238 3091 4078 2852 
Q 3919 2613 3616 2497 
z
" transform="scale(0.015625)"/>
      <path id="DejaVuSans-Bold-72" d="M 3138 2547 
Q 2991 2616 2845 2648 
Q 2700 2681 2553 2681 
Q 2122 2681 1889 2404 
Q 1656 2128 1656 1613 
L 1656 0 
L 538 0 
L 538 3500 
L 1656 3500 
L 1656 2925 
Q 1872 3269 2151 3426 
Q 2431 3584 2822 3584 
Q 2878 3584 2943 3579 
Q 3009 3575 3134 3559 
L 3138 2547 
z
" transform="scale(0.015625)"/>
      <path id="DejaVuSans-Bold-61" d="M 2106 1575 
Q 1756 1575 1579 1456 
Q 1403 1338 1403 1106 
Q 1403 894 1545 773 
Q 1688 653 1941 653 
Q 2256 653 2472 879 
Q 2688 1106 2688 1447 
L 2688 1575 
L 2106 1575 
z
M 3816 1997 
L 3816 0 
L 2688 0 
L 2688 519 
Q 2463 200 2181 54 
Q 1900 -91 1497 -91 
Q 953 -91 614 226 
Q 275 544 275 1050 
Q 275 1666 698 1953 
Q 1122 2241 2028 2241 
L 2688 2241 
L 2688 2328 
Q 2688 2594 2478 2717 
Q 2269 2841 1825 2841 
Q 1466 2841 1156 2769 
Q 847 2697 581 2553 
L 581 3406 
Q 941 3494 1303 3539 
Q 1666 3584 2028 3584 
Q 2975 3584 3395 3211 
Q 3816 2838 3816 1997 
z
" transform="scale(0.015625)"/>
      <path id="DejaVuSans-Bold-6e" d="M 4056 2131 
L 4056 0 
L 2931 0 
L 2931 347 
L 2931 1631 
Q 2931 2084 2911 2256 
Q 2891 2428 2841 2509 
Q 2775 2619 2662 2680 
Q 2550 2741 2406 2741 
Q 2056 2741 1856 2470 
Q 1656 2200 1656 1722 
L 1656 0 
L 538 0 
L 538 3500 
L 1656 3500 
L 1656 2988 
Q 1909 3294 2193 3439 
Q 2478 3584 2822 3584 
Q 3428 3584 3742 3212 
Q 4056 2841 4056 2131 
z
" transform="scale(0.015625)"/>
      <path id="DejaVuSans-Bold-64" d="M 2919 2988 
L 2919 4863 
L 4044 4863 
L 4044 0 
L 2919 0 
L 2919 506 
Q 2688 197 2409 53 
Q 2131 -91 1766 -91 
Q 1119 -91 703 423 
Q 288 938 288 1747 
Q 288 2556 703 3070 
Q 1119 3584 1766 3584 
Q 2128 3584 2408 3439 
Q 2688 3294 2919 2988 
z
M 2181 722 
Q 2541 722 2730 984 
Q 2919 1247 2919 1747 
Q 2919 2247 2730 2509 
Q 2541 2772 2181 2772 
Q 1825 2772 1636 2509 
Q 1447 2247 1447 1747 
Q 1447 1247 1636 984 
Q 1825 722 2181 722 
z
" transform="scale(0.015625)"/>
      <path id="DejaVuSans-Bold-20" transform="scale(0.015625)"/>
      <path id="DejaVuSans-Bold-50" d="M 588 4666 
L 2584 4666 
Q 3475 4666 3951 4270 
Q 4428 3875 4428 3144 
Q 4428 2409 3951 2014 
Q 3475 1619 2584 1619 
L 1791 1619 
L 1791 0 
L 588 0 
L 588 4666 
z
M 1791 3794 
L 1791 2491 
L 2456 2491 
Q 2806 2491 2997 2661 
Q 3188 2831 3188 3144 
Q 3188 3456 2997 3625 
Q 2806 3794 2456 3794 
L 1791 3794 
z
" transform="scale(0.015625)"/>
      <path id="DejaVuSans-Bold-69" d="M 538 3500 
L 1656 3500 
L 1656 0 
L 538 0 
L 538 3500 
z
M 538 4863 
L 1656 4863 
L 1656 3950 
L 538 3950 
L 538 4863 
z
" transform="scale(0.015625)"/>
      <path id="DejaVuSans-Bold-70" d="M 1656 506 
L 1656 -1331 
L 538 -1331 
L 538 3500 
L 1656 3500 
L 1656 2988 
Q 1888 3294 2169 3439 
Q 2450 3584 2816 3584 
Q 3463 3584 3878 3070 
Q 4294 2556 4294 1747 
Q 4294 938 3878 423 
Q 3463 -91 2816 -91 
Q 2450 -91 2169 54 
Q 1888 200 1656 506 
z
M 2400 2772 
Q 2041 2772 1848 2508 
Q 1656 2244 1656 1747 
Q 1656 1250 1848 986 
Q 2041 722 2400 722 
Q 2759 722 2948 984 
Q 3138 1247 3138 1747 
Q 3138 2247 2948 2509 
Q 2759 2772 2400 2772 
z
" transform="scale(0.015625)"/>
      <path id="DejaVuSans-Bold-6f" d="M 2203 2784 
Q 1831 2784 1636 2517 
Q 1441 2250 1441 1747 
Q 1441 1244 1636 976 
Q 1831 709 2203 709 
Q 2569 709 2762 976 
Q 2956 1244 2956 1747 
Q 2956 2250 2762 2517 
Q 2569 2784 2203 2784 
z
M 2203 3584 
Q 3106 3584 3614 3096 
Q 4122 2609 4122 1747 
Q 4122 884 3614 396 
Q 3106 -91 2203 -91 
Q 1297 -91 786 396 
Q 275 884 275 1747 
Q 275 2609 786 3096 
Q 1297 3584 2203 3584 
z
" transform="scale(0.015625)"/>
      <path id="DejaVuSans-Bold-74" d="M 1759 4494 
L 1759 3500 
L 2913 3500 
L 2913 2700 
L 1759 2700 
L 1759 1216 
Q 1759 972 1856 886 
Q 1953 800 2241 800 
L 2816 800 
L 2816 0 
L 1856 0 
Q 1194 0 917 276 
Q 641 553 641 1216 
L 641 2700 
L 84 2700 
L 84 3500 
L 641 3500 
L 641 4494 
L 1759 4494 
z
" transform="scale(0.015625)"/>
      <path id="DejaVuSans-Bold-66" d="M 2841 4863 
L 2841 4128 
L 2222 4128 
Q 1984 4128 1890 4042 
Q 1797 3956 1797 3744 
L 1797 3500 
L 2753 3500 
L 2753 2700 
L 1797 2700 
L 1797 0 
L 678 0 
L 678 2700 
L 122 2700 
L 122 3500 
L 678 3500 
L 678 3744 
Q 678 4316 997 4589 
Q 1316 4863 1984 4863 
L 2841 4863 
z
" transform="scale(0.015625)"/>
      <path id="DejaVuSans-Bold-6c" d="M 538 4863 
L 1656 4863 
L 1656 0 
L 538 0 
L 538 4863 
z
" transform="scale(0.015625)"/>
      <path id="DejaVuSans-Bold-65" d="M 4031 1759 
L 4031 1441 
L 1416 1441 
Q 1456 1047 1700 850 
Q 1944 653 2381 653 
Q 2734 653 3104 758 
Q 3475 863 3866 1075 
L 3866 213 
Q 3469 63 3072 -14 
Q 2675 -91 2278 -91 
Q 1328 -91 801 392 
Q 275 875 275 1747 
Q 275 2603 792 3093 
Q 1309 3584 2216 3584 
Q 3041 3584 3536 3087 
Q 4031 2591 4031 1759 
z
M 2881 2131 
Q 2881 2450 2695 2645 
Q 2509 2841 2209 2841 
Q 1884 2841 1681 2658 
Q 1478 2475 1428 2131 
L 2881 2131 
z
" transform="scale(0.015625)"/>
      <path id="DejaVuSans-Bold-28" d="M 2413 -844 
L 1484 -844 
Q 1006 -72 778 623 
Q 550 1319 550 2003 
Q 550 2688 779 3389 
Q 1009 4091 1484 4856 
L 2413 4856 
Q 2013 4116 1813 3408 
Q 1613 2700 1613 2009 
Q 1613 1319 1811 609 
Q 2009 -100 2413 -844 
z
" transform="scale(0.015625)"/>
      <path id="DejaVuSans-Bold-54" d="M 31 4666 
L 4331 4666 
L 4331 3756 
L 2784 3756 
L 2784 0 
L 1581 0 
L 1581 3756 
L 31 3756 
L 31 4666 
z
" transform="scale(0.015625)"/>
      <path id="DejaVuSans-Bold-35" d="M 678 4666 
L 3669 4666 
L 3669 3781 
L 1638 3781 
L 1638 3059 
Q 1775 3097 1914 3117 
Q 2053 3138 2203 3138 
Q 3056 3138 3531 2711 
Q 4006 2284 4006 1522 
Q 4006 766 3489 337 
Q 2972 -91 2053 -91 
Q 1656 -91 1267 -14 
Q 878 63 494 219 
L 494 1166 
Q 875 947 1217 837 
Q 1559 728 1863 728 
Q 2300 728 2551 942 
Q 2803 1156 2803 1522 
Q 2803 1891 2551 2103 
Q 2300 2316 1863 2316 
Q 1603 2316 1309 2248 
Q 1016 2181 678 2041 
L 678 4666 
z
" transform="scale(0.015625)"/>
      <path id="DejaVuSans-Bold-73" d="M 3272 3391 
L 3272 2541 
Q 2913 2691 2578 2766 
Q 2244 2841 1947 2841 
Q 1628 2841 1473 2761 
Q 1319 2681 1319 2516 
Q 1319 2381 1436 2309 
Q 1553 2238 1856 2203 
L 2053 2175 
Q 2913 2066 3209 1816 
Q 3506 1566 3506 1031 
Q 3506 472 3093 190 
Q 2681 -91 1863 -91 
Q 1516 -91 1145 -36 
Q 775 19 384 128 
L 384 978 
Q 719 816 1070 734 
Q 1422 653 1784 653 
Q 2113 653 2278 743 
Q 2444 834 2444 1013 
Q 2444 1163 2330 1236 
Q 2216 1309 1875 1350 
L 1678 1375 
Q 931 1469 631 1722 
Q 331 1975 331 2491 
Q 331 3047 712 3315 
Q 1094 3584 1881 3584 
Q 2191 3584 2531 3537 
Q 2872 3491 3272 3391 
z
" transform="scale(0.015625)"/>
      <path id="DejaVuSans-Bold-29" d="M 513 -844 
Q 913 -100 1113 609 
Q 1313 1319 1313 2009 
Q 1313 2700 1113 3408 
Q 913 4116 513 4856 
L 1441 4856 
Q 1916 4091 2145 3389 
Q 2375 2688 2375 2003 
Q 2375 1319 2147 623 
Q 1919 -72 1441 -844 
L 513 -844 
z
" transform="scale(0.015625)"/>
     </defs>
     <use xlink:href="#DejaVuSans-Bold-42"/>
     <use xlink:href="#DejaVuSans-Bold-72" transform="translate(76.220703 0)"/>
     <use xlink:href="#DejaVuSans-Bold-61" transform="translate(125.537109 0)"/>
     <use xlink:href="#DejaVuSans-Bold-6e" transform="translate(193.017578 0)"/>
     <use xlink:href="#DejaVuSans-Bold-64" transform="translate(264.208984 0)"/>
     <use xlink:href="#DejaVuSans-Bold-20" transform="translate(335.791016 0)"/>
     <use xlink:href="#DejaVuSans-Bold-50" transform="translate(370.605469 0)"/>
     <use xlink:href="#DejaVuSans-Bold-61" transform="translate(441.271484 0)"/>
     <use xlink:href="#DejaVuSans-Bold-69" transform="translate(508.751953 0)"/>
     <use xlink:href="#DejaVuSans-Bold-6e" transform="translate(543.029297 0)"/>
     <use xlink:href="#DejaVuSans-Bold-70" transform="translate(614.220703 0)"/>
     <use xlink:href="#DejaVuSans-Bold-6f" transform="translate(685.802734 0)"/>
     <use xlink:href="#DejaVuSans-Bold-69" transform="translate(754.503906 0)"/>
     <use xlink:href="#DejaVuSans-Bold-6e" transform="translate(788.78125 0)"/>
     <use xlink:href="#DejaVuSans-Bold-74" transform="translate(859.972656 0)"/>
     <use xlink:href="#DejaVuSans-Bold-20" transform="translate(907.775391 0)"/>
     <use xlink:href="#DejaVuSans-Bold-50" transform="translate(942.589844 0)"/>
     <use xlink:href="#DejaVuSans-Bold-72" transform="translate(1015.880859 0)"/>
     <use xlink:href="#DejaVuSans-Bold-6f" transform="translate(1065.197266 0)"/>
     <use xlink:href="#DejaVuSans-Bold-66" transform="translate(1133.898438 0)"/>
     <use xlink:href="#DejaVuSans-Bold-69" transform="translate(1177.404297 0)"/>
     <use xlink:href="#DejaVuSans-Bold-6c" transform="translate(1211.681641 0)"/>
     <use xlink:href="#DejaVuSans-Bold-65" transform="translate(1245.958984 0)"/>
     <use xlink:href="#DejaVuSans-Bold-20" transform="translate(1313.78125 0)"/>
     <use xlink:href="#DejaVuSans-Bold-28" transform="translate(1348.595703 0)"/>
     <use xlink:href="#DejaVuSans-Bold-54" transform="translate(1394.298828 0)"/>
     <use xlink:href="#DejaVuSans-Bold-6f" transform="translate(1449.261719 0)"/>
     <use xlink:href="#DejaVuSans-Bold-70" transform="translate(1517.962891 0)"/>
     <use xlink:href="#DejaVuSans-Bold-20" transform="translate(1589.544922 0)"/>
     <use xlink:href="#DejaVuSans-Bold-35" transform="translate(1624.359375 0)"/>
     <use xlink:href="#DejaVuSans-Bold-20" transform="translate(1693.939453 0)"/>
     <use xlink:href="#DejaVuSans-Bold-42" transform="translate(1728.753906 0)"/>
     <use xlink:href="#DejaVuSans-Bold-72" transform="translate(1804.974609 0)"/>
     <use xlink:href="#DejaVuSans-Bold-61" transform="translate(1854.291016 0)"/>
     <use xlink:href="#DejaVuSans-Bold-6e" transform="translate(1921.771484 0)"/>
     <use xlink:href="#DejaVuSans-Bold-64" transform="translate(1992.962891 0)"/>
     <use xlink:href="#DejaVuSans-Bold-73" transform="translate(2064.544922 0)"/>
     <use xlink:href="#DejaVuSans-Bold-29" transform="translate(2124.066406 0)"/>
    </g>
   </g>
   <g id="legend_1">
    <g id="patch_9">
     <path d="M 643.941987 83.590625 
L 726.0498 83.590625 
Q 728.0498 83.590625 728.0498 81.590625 
L 728.0498 9.2 
Q 728.0498 7.2 726.0498 7.2 
L 643.941987 7.2 
Q 641.941987 7.2 641.941987 9.2 
L 641.941987 81.590625 
Q 641.941987 83.590625 643.941987 83.590625 
z
" style="fill: #ffffff; opacity: 0.8; stroke: #cccccc; stroke-linejoin: miter"/>
    </g>
    <g id="line2d_19">
     <path d="M 645.941987 15.298437 
L 655.941987 15.298437 
L 665.941987 15.298437 
" style="fill: none; stroke: #1f77b4; stroke-width: 2; stroke-linecap: round"/>
    </g>
    <g id="text_10">
     <!-- Imarku -->
     <g style="fill: #262626" transform="translate(673.941987 18.798437) scale(0.1 -0.1)">
      <defs>
       <path id="DejaVuSans-49" d="M 628 4666 
L 1259 4666 
L 1259 0 
L 628 0 
L 628 4666 
z
" transform="scale(0.015625)"/>
       <path id="DejaVuSans-6b" d="M 581 4863 
L 1159 4863 
L 1159 1991 
L 2875 3500 
L 3609 3500 
L 1753 1863 
L 3688 0 
L 2938 0 
L 1159 1709 
L 1159 0 
L 581 0 
L 581 4863 
z
" transform="scale(0.015625)"/>
      </defs>
      <use xlink:href="#DejaVuSans-49"/>
      <use xlink:href="#DejaVuSans-6d" transform="translate(29.492188 0)"/>
      <use xlink:href="#DejaVuSans-61" transform="translate(126.904297 0)"/>
      <use xlink:href="#DejaVuSans-72" transform="translate(188.183594 0)"/>
      <use xlink:href="#DejaVuSans-6b" transform="translate(229.296875 0)"/>
      <use xlink:href="#DejaVuSans-75" transform="translate(284.082031 0)"/>
     </g>
    </g>
    <g id="line2d_20">
     <path d="M 645.941987 29.976562 
L 655.941987 29.976562 
L 665.941987 29.976562 
" style="fill: none; stroke: #ff7f0e; stroke-width: 2; stroke-linecap: round"/>
    </g>
    <g id="text_11">
     <!-- Paudin -->
     <g style="fill: #262626" transform="translate(673.941987 33.476562) scale(0.1 -0.1)">
      <defs>
       <path id="DejaVuSans-50" d="M 1259 4147 
L 1259 2394 
L 2053 2394 
Q 2494 2394 2734 2622 
Q 2975 2850 2975 3272 
Q 2975 3691 2734 3919 
Q 2494 4147 2053 4147 
L 1259 4147 
z
M 628 4666 
L 2053 4666 
Q 2838 4666 3239 4311 
Q 3641 3956 3641 3272 
Q 3641 2581 3239 2228 
Q 2838 1875 2053 1875 
L 1259 1875 
L 1259 0 
L 628 0 
L 628 4666 
z
" transform="scale(0.015625)"/>
      </defs>
      <use xlink:href="#DejaVuSans-50"/>
      <use xlink:href="#DejaVuSans-61" transform="translate(55.802734 0)"/>
      <use xlink:href="#DejaVuSans-75" transform="translate(117.082031 0)"/>
      <use xlink:href="#DejaVuSans-64" transform="translate(180.460938 0)"/>
      <use xlink:href="#DejaVuSans-69" transform="translate(243.9375 0)"/>
      <use xlink:href="#DejaVuSans-6e" transform="translate(271.720703 0)"/>
     </g>
    </g>
    <g id="line2d_21">
     <path d="M 645.941987 44.654688 
L 655.941987 44.654688 
L 665.941987 44.654688 
" style="fill: none; stroke: #2ca02c; stroke-width: 2; stroke-linecap: round"/>
    </g>
    <g id="text_12">
     <!-- Hoshanho -->
     <g style="fill: #262626" transform="translate(673.941987 48.154688) scale(0.1 -0.1)">
      <use xlink:href="#DejaVuSans-48"/>
      <use xlink:href="#DejaVuSans-6f" transform="translate(75.195312 0)"/>
      <use xlink:href="#DejaVuSans-73" transform="translate(136.376953 0)"/>
      <use xlink:href="#DejaVuSans-68" transform="translate(188.476562 0)"/>
      <use xlink:href="#DejaVuSans-61" transform="translate(251.855469 0)"/>
      <use xlink:href="#DejaVuSans-6e" transform="translate(313.134766 0)"/>
      <use xlink:href="#DejaVuSans-68" transform="translate(376.513672 0)"/>
      <use xlink:href="#DejaVuSans-6f" transform="translate(439.892578 0)"/>
     </g>
    </g>
    <g id="line2d_22">
     <path d="M 645.941987 59.332812 
L 655.941987 59.332812 
L 665.941987 59.332812 
" style="fill: none; stroke: #d62728; stroke-width: 2; stroke-linecap: round"/>
    </g>
    <g id="text_13">
     <!-- Astercook -->
     <g style="fill: #262626" transform="translate(673.941987 62.832812) scale(0.1 -0.1)">
      <use xlink:href="#DejaVuSans-41"/>
      <use xlink:href="#DejaVuSans-73" transform="translate(68.408203 0)"/>
      <use xlink:href="#DejaVuSans-74" transform="translate(120.507812 0)"/>
      <use xlink:href="#DejaVuSans-65" transform="translate(159.716797 0)"/>
      <use xlink:href="#DejaVuSans-72" transform="translate(221.240234 0)"/>
      <use xlink:href="#DejaVuSans-63" transform="translate(260.103516 0)"/>
      <use xlink:href="#DejaVuSans-6f" transform="translate(315.083984 0)"/>
      <use xlink:href="#DejaVuSans-6f" transform="translate(376.265625 0)"/>
      <use xlink:href="#DejaVuSans-6b" transform="translate(437.447266 0)"/>
     </g>
    </g>
    <g id="line2d_23">
     <path d="M 645.941987 74.010937 
L 655.941987 74.010937 
L 665.941987 74.010937 
" style="fill: none; stroke: #9467bd; stroke-width: 2; stroke-linecap: round"/>
    </g>
    <g id="text_14">
     <!-- Cuisinart -->
     <g style="fill: #262626" transform="translate(673.941987 77.510937) scale(0.1 -0.1)">
      <use xlink:href="#DejaVuSans-43"/>
      <use xlink:href="#DejaVuSans-75" transform="translate(69.824219 0)"/>
      <use xlink:href="#DejaVuSans-69" transform="translate(133.203125 0)"/>
      <use xlink:href="#DejaVuSans-73" transform="translate(160.986328 0)"/>
      <use xlink:href="#DejaVuSans-69" transform="translate(213.085938 0)"/>
      <use xlink:href="#DejaVuSans-6e" transform="translate(240.869141 0)"/>
      <use xlink:href="#DejaVuSans-61" transform="translate(304.248047 0)"/>
      <use xlink:href="#DejaVuSans-72" transform="translate(365.527344 0)"/>
      <use xlink:href="#DejaVuSans-74" transform="translate(406.640625 0)"/>
     </g>
    </g>
   </g>
  </g>
 </g>
 <defs>
  <clipPath id="p1de06f22b2">
   <path d="M 620.629 339.4624 
C 620.629 302.55499 613.359045 266.006457 599.23519 231.908456 
C 585.111336 197.810455 564.408255 166.826105 538.310775 140.728625 
C 512.213295 114.631145 481.228945 93.928064 447.130944 79.80421 
C 413.032943 65.680355 376.48441 58.4104 339.577 58.4104 
C 302.66959 58.4104 266.121057 65.680355 232.023056 79.80421 
C 197.925055 93.928064 166.940705 114.631145 140.843225 140.728625 
C 114.745745 166.826105 94.042664 197.810455 79.91881 231.908456 
C 65.794955 266.006457 58.525 302.55499 58.525 339.4624 
C 58.525 376.36981 65.794955 412.918343 79.91881 447.016344 
C 94.042664 481.114345 114.745745 512.098695 140.843225 538.196175 
C 166.940705 564.293655 197.925055 584.996736 232.023056 599.12059 
C 266.121057 613.244445 302.66959 620.5144 339.577 620.5144 
C 376.48441 620.5144 413.032943 613.244445 447.130944 599.12059 
C 481.228945 584.996736 512.213295 564.293655 538.310775 538.196175 
C 564.408255 512.098695 585.111336 481.114345 599.23519 447.016344 
C 613.359045 412.918343 620.629 376.36981 620.629 339.4624 
M 339.577 339.4624 
C 339.577 339.4624 339.577 339.4624 339.577 339.4624 
C 339.577 339.4624 339.577 339.4624 339.577 339.4624 
C 339.577 339.4624 339.577 339.4624 339.577 339.4624 
C 339.577 339.4624 339.577 339.4624 339.577 339.4624 
C 339.577 339.4624 339.577 339.4624 339.577 339.4624 
C 339.577 339.4624 339.577 339.4624 339.577 339.4624 
C 339.577 339.4624 339.577 339.4624 339.577 339.4624 
C 339.577 339.4624 339.577 339.4624 339.577 339.4624 
C 339.577 339.4624 339.577 339.4624 339.577 339.4624 
C 339.577 339.4624 339.577 339.4624 339.577 339.4624 
C 339.577 339.4624 339.577 339.4624 339.577 339.4624 
C 339.577 339.4624 339.577 339.4624 339.577 339.4624 
C 339.577 339.4624 339.577 339.4624 339.577 339.4624 
C 339.577 339.4624 339.577 339.4624 339.577 339.4624 
C 339.577 339.4624 339.577 339.4624 339.577 339.4624 
C 339.577 339.4624 339.577 339.4624 339.577 339.4624 
z
"/>
  </clipPath>
 </defs>
</svg>
